<svg height="512pt" viewBox="0 0 512 512" width="512pt" xmlns="http://www.w3.org/2000/svg"><path d="m416 512h-320c-53.023438 0-96-42.976562-96-96v-320c0-53.023438 42.976562-96 96-96h320c53.023438 0 96 42.976562 96 96v320c0 53.023438-42.976562 96-96 96zm0 0" fill="#f5e6fe"/><path d="m352 266.671875h-192c-5.886719 0-10.671875-4.785156-10.671875-10.671875s4.785156-10.671875 10.671875-10.671875h192c5.886719 0 10.671875 4.785156 10.671875 10.671875s-4.785156 10.671875-10.671875 10.671875zm0 0" fill="#be63f9"/></svg>